<mxfile host="app.diagrams.net" modified="2023-07-01T21:34:34.557Z" agent="Mozilla/5.0 (Windows NT 10.0; Win64; x64) AppleWebKit/537.36 (KHTML, like Gecko) Chrome/114.0.0.0 Safari/537.36 Edg/114.0.1823.51" etag="3lcI4U7uJxogFLbFmQvy" version="21.5.2" type="github">
  <diagram name="Page-1" id="LdHzJ6vxyb1afSf9P6ii">
    <mxGraphModel dx="3119" dy="1116" grid="1" gridSize="10" guides="1" tooltips="1" connect="1" arrows="1" fold="1" page="1" pageScale="1" pageWidth="1100" pageHeight="850" math="0" shadow="0">
      <root>
        <mxCell id="0" />
        <mxCell id="1" value="Peripherals" parent="0" />
        <mxCell id="aFMg3YP72EsfVgEZLQHG-5" value="&amp;nbsp;Office" style="rounded=0;whiteSpace=wrap;html=1;horizontal=1;verticalAlign=top;align=left;movable=1;resizable=1;rotatable=1;deletable=1;editable=1;locked=0;connectable=1;" vertex="1" parent="1">
          <mxGeometry x="-410" y="51" width="1110" height="1029" as="geometry" />
        </mxCell>
        <mxCell id="Skk9IjnTPZE2Z5z-faYJ-36" value="&amp;nbsp;Key" style="rounded=0;whiteSpace=wrap;html=1;horizontal=1;verticalAlign=top;align=left;" parent="1" vertex="1">
          <mxGeometry x="930" y="51" width="170" height="105" as="geometry" />
        </mxCell>
        <mxCell id="Skk9IjnTPZE2Z5z-faYJ-30" value="GbE" style="whiteSpace=wrap;html=1;aspect=fixed;fillColor=#d5e8d4;strokeColor=#82b366;" parent="1" vertex="1">
          <mxGeometry x="995" y="76" width="28" height="28" as="geometry" />
        </mxCell>
        <mxCell id="Skk9IjnTPZE2Z5z-faYJ-31" value="PoE&lt;br&gt;GbE" style="whiteSpace=wrap;html=1;aspect=fixed;fillColor=#97D077;strokeColor=#82b366;" parent="1" vertex="1">
          <mxGeometry x="965" y="76" width="28" height="28" as="geometry" />
        </mxCell>
        <mxCell id="Skk9IjnTPZE2Z5z-faYJ-61" value="GbE" style="endArrow=openThin;html=1;rounded=0;edgeStyle=elbowEdgeStyle;elbow=vertical;strokeColor=#97D077;startArrow=openThin;startFill=0;endFill=0;fillColor=#d5e8d4;" parent="1" edge="1">
          <mxGeometry x="0.0163" relative="1" as="geometry">
            <mxPoint x="1008.76" y="149" as="sourcePoint" />
            <mxPoint x="1008.76" y="111" as="targetPoint" />
            <mxPoint as="offset" />
          </mxGeometry>
        </mxCell>
        <mxCell id="Skk9IjnTPZE2Z5z-faYJ-62" value="GbE" style="endArrow=openThin;html=1;rounded=0;edgeStyle=elbowEdgeStyle;elbow=vertical;strokeColor=#82b366;startArrow=openThin;startFill=0;endFill=0;fillColor=#d5e8d4;" parent="1" edge="1">
          <mxGeometry relative="1" as="geometry">
            <mxPoint x="978.76" y="149" as="sourcePoint" />
            <mxPoint x="978.76" y="111" as="targetPoint" />
          </mxGeometry>
        </mxCell>
        <mxCell id="Skk9IjnTPZE2Z5z-faYJ-79" value="Echo" style="outlineConnect=0;dashed=0;verticalLabelPosition=bottom;verticalAlign=top;align=center;html=1;shape=mxgraph.aws3.alexa_voice_service;fillColor=#66FFFF;gradientColor=none;" parent="1" vertex="1">
          <mxGeometry x="621" y="820" width="40" height="45" as="geometry" />
        </mxCell>
        <mxCell id="Skk9IjnTPZE2Z5z-faYJ-81" value="Power" style="endArrow=openThin;html=1;rounded=0;edgeStyle=elbowEdgeStyle;elbow=vertical;strokeColor=#b85450;startArrow=openThin;startFill=0;endFill=0;fillColor=#f8cecc;" parent="1" edge="1">
          <mxGeometry x="0.0163" relative="1" as="geometry">
            <mxPoint x="949.9999999999999" y="148" as="sourcePoint" />
            <mxPoint x="949.9999999999999" y="110" as="targetPoint" />
            <mxPoint as="offset" />
          </mxGeometry>
        </mxCell>
        <mxCell id="Skk9IjnTPZE2Z5z-faYJ-82" value="Pwr" style="whiteSpace=wrap;html=1;aspect=fixed;fillColor=#f8cecc;strokeColor=#b85450;" parent="1" vertex="1">
          <mxGeometry x="940" y="76" width="28" height="28" as="geometry" />
        </mxCell>
        <mxCell id="aFMg3YP72EsfVgEZLQHG-4" value="" style="points=[[0.115,0.05,0],[0.335,0,0],[0.98,0.52,0],[1,0.71,0],[0.68,1,0],[0.065,0.76,0],[0,0.33,0],[0.68,0.33,0]];verticalLabelPosition=bottom;sketch=0;html=1;verticalAlign=top;aspect=fixed;align=center;pointerEvents=1;shape=mxgraph.cisco19.home_office;fillColor=#005073;strokeColor=none;movable=1;resizable=1;rotatable=1;deletable=1;editable=1;locked=0;connectable=1;" vertex="1" parent="1">
          <mxGeometry x="640" y="60" width="50" height="50" as="geometry" />
        </mxCell>
        <mxCell id="aFMg3YP72EsfVgEZLQHG-59" value="FE" style="whiteSpace=wrap;html=1;aspect=fixed;fillColor=#CCFFCC;strokeColor=#82b366;" vertex="1" parent="1">
          <mxGeometry x="1025" y="76" width="28" height="28" as="geometry" />
        </mxCell>
        <mxCell id="aFMg3YP72EsfVgEZLQHG-60" value="FE" style="endArrow=openThin;html=1;rounded=0;edgeStyle=elbowEdgeStyle;elbow=vertical;strokeColor=#CCFFCC;startArrow=openThin;startFill=0;endFill=0;fillColor=#d5e8d4;" edge="1" parent="1">
          <mxGeometry x="0.0163" relative="1" as="geometry">
            <mxPoint x="1038.76" y="149" as="sourcePoint" />
            <mxPoint x="1038.76" y="111" as="targetPoint" />
            <mxPoint as="offset" />
          </mxGeometry>
        </mxCell>
        <mxCell id="aFMg3YP72EsfVgEZLQHG-135" value="" style="image;html=1;image=img/lib/clip_art/computers/Printer_128x128.png;imageBackground=#66FFFF;" vertex="1" parent="1">
          <mxGeometry x="-110" y="70" width="60" height="80" as="geometry" />
        </mxCell>
        <mxCell id="aFMg3YP72EsfVgEZLQHG-163" value="Echo" style="outlineConnect=0;dashed=0;verticalLabelPosition=bottom;verticalAlign=top;align=center;html=1;shape=mxgraph.aws3.alexa_voice_service;fillColor=#66FFFF;gradientColor=none;" vertex="1" parent="1">
          <mxGeometry x="578.75" y="130" width="40" height="45" as="geometry" />
        </mxCell>
        <mxCell id="aFMg3YP72EsfVgEZLQHG-175" value="" style="fontColor=#0066CC;verticalAlign=top;verticalLabelPosition=bottom;labelPosition=center;align=center;html=1;outlineConnect=0;fillColor=#66FFFF;strokeColor=#6881B3;gradientColor=none;gradientDirection=north;strokeWidth=2;shape=mxgraph.networks.security_camera;" vertex="1" parent="1">
          <mxGeometry x="-400" y="598.46" width="60" height="45" as="geometry" />
        </mxCell>
        <mxCell id="aFMg3YP72EsfVgEZLQHG-91" value="Compute + Storage" parent="0" />
        <mxCell id="aFMg3YP72EsfVgEZLQHG-29" value="Dreadnaught" style="fontColor=#0066CC;verticalAlign=top;verticalLabelPosition=bottom;labelPosition=center;align=center;html=1;outlineConnect=0;fillColor=#CCCCCC;strokeColor=#6881B3;gradientColor=none;gradientDirection=north;strokeWidth=2;shape=mxgraph.networks.pc;" vertex="1" parent="aFMg3YP72EsfVgEZLQHG-91">
          <mxGeometry x="-318" y="510" width="60" height="42" as="geometry" />
        </mxCell>
        <mxCell id="aFMg3YP72EsfVgEZLQHG-30" value="HP All in One" style="fontColor=#0066CC;verticalAlign=top;verticalLabelPosition=bottom;labelPosition=center;align=center;html=1;outlineConnect=0;fillColor=#CCCCCC;strokeColor=#6881B3;gradientColor=none;gradientDirection=north;strokeWidth=2;shape=mxgraph.networks.pc;" vertex="1" parent="aFMg3YP72EsfVgEZLQHG-91">
          <mxGeometry x="-230" y="510" width="60" height="42" as="geometry" />
        </mxCell>
        <mxCell id="aFMg3YP72EsfVgEZLQHG-37" value="Proxmox PVE" style="verticalLabelPosition=bottom;sketch=0;aspect=fixed;html=1;verticalAlign=top;strokeColor=none;align=center;outlineConnect=0;shape=mxgraph.citrix.1u_2u_server;" vertex="1" parent="aFMg3YP72EsfVgEZLQHG-91">
          <mxGeometry x="30" y="630" width="60" height="23.46" as="geometry" />
        </mxCell>
        <mxCell id="aFMg3YP72EsfVgEZLQHG-66" value="Deathstar" style="image;html=1;image=img/lib/clip_art/computers/Server_Tower_128x128.png" vertex="1" parent="aFMg3YP72EsfVgEZLQHG-91">
          <mxGeometry x="-20" y="760" width="60" height="60" as="geometry" />
        </mxCell>
        <mxCell id="aFMg3YP72EsfVgEZLQHG-72" value="DAS-01" style="image;points=[];aspect=fixed;html=1;align=center;shadow=0;dashed=0;image=img/lib/allied_telesis/storage/Datacenter_Server_Storage_Unit_Large.svg;" vertex="1" parent="aFMg3YP72EsfVgEZLQHG-91">
          <mxGeometry x="140" y="720" width="50" height="51.59" as="geometry" />
        </mxCell>
        <mxCell id="aFMg3YP72EsfVgEZLQHG-75" value="DAS-02" style="image;points=[];aspect=fixed;html=1;align=center;shadow=0;dashed=0;image=img/lib/allied_telesis/storage/Datacenter_Server_Storage_Unit_Large.svg;" vertex="1" parent="aFMg3YP72EsfVgEZLQHG-91">
          <mxGeometry x="140" y="615.9300000000001" width="50" height="51.59" as="geometry" />
        </mxCell>
        <mxCell id="aFMg3YP72EsfVgEZLQHG-174" value="??" style="edgeStyle=orthogonalEdgeStyle;rounded=0;orthogonalLoop=1;jettySize=auto;html=1;" edge="1" parent="aFMg3YP72EsfVgEZLQHG-91" source="aFMg3YP72EsfVgEZLQHG-170" target="aFMg3YP72EsfVgEZLQHG-163">
          <mxGeometry relative="1" as="geometry">
            <mxPoint x="475" y="437" as="sourcePoint" />
            <mxPoint x="360" y="300" as="targetPoint" />
          </mxGeometry>
        </mxCell>
        <mxCell id="aFMg3YP72EsfVgEZLQHG-176" value="??" style="rounded=0;orthogonalLoop=1;jettySize=auto;html=1;fillColor=#f8cecc;strokeColor=#b85450;exitX=0.063;exitY=0.967;exitDx=0;exitDy=0;exitPerimeter=0;edgeStyle=orthogonalEdgeStyle;" edge="1" parent="aFMg3YP72EsfVgEZLQHG-91" source="aFMg3YP72EsfVgEZLQHG-101" target="aFMg3YP72EsfVgEZLQHG-175">
          <mxGeometry relative="1" as="geometry">
            <mxPoint x="-750" y="310" as="sourcePoint" />
            <mxPoint x="-740" y="520" as="targetPoint" />
          </mxGeometry>
        </mxCell>
        <mxCell id="aFMg3YP72EsfVgEZLQHG-180" value="" style="endArrow=openThin;html=1;rounded=0;strokeColor=#000000;startArrow=openThin;startFill=0;endFill=0;fillColor=#f8cecc;edgeStyle=orthogonalEdgeStyle;" edge="1" parent="aFMg3YP72EsfVgEZLQHG-91" source="aFMg3YP72EsfVgEZLQHG-37" target="aFMg3YP72EsfVgEZLQHG-75">
          <mxGeometry relative="1" as="geometry">
            <mxPoint x="710" y="508" as="sourcePoint" />
            <mxPoint x="1148" y="460" as="targetPoint" />
          </mxGeometry>
        </mxCell>
        <mxCell id="aFMg3YP72EsfVgEZLQHG-181" value="" style="endArrow=openThin;html=1;rounded=0;strokeColor=#000000;startArrow=openThin;startFill=0;endFill=0;fillColor=#f8cecc;edgeStyle=orthogonalEdgeStyle;exitX=0.5;exitY=0;exitDx=0;exitDy=0;" edge="1" parent="aFMg3YP72EsfVgEZLQHG-91" source="aFMg3YP72EsfVgEZLQHG-66" target="aFMg3YP72EsfVgEZLQHG-72">
          <mxGeometry relative="1" as="geometry">
            <mxPoint x="710" y="618" as="sourcePoint" />
            <mxPoint x="1148" y="570" as="targetPoint" />
          </mxGeometry>
        </mxCell>
        <mxCell id="aFMg3YP72EsfVgEZLQHG-92" value="Power" parent="0" />
        <mxCell id="aFMg3YP72EsfVgEZLQHG-94" value="" style="group" vertex="1" connectable="0" parent="aFMg3YP72EsfVgEZLQHG-92">
          <mxGeometry x="541" y="900" width="117.5" height="60" as="geometry" />
        </mxCell>
        <mxCell id="aFMg3YP72EsfVgEZLQHG-12" value="" style="group" vertex="1" connectable="0" parent="aFMg3YP72EsfVgEZLQHG-94">
          <mxGeometry width="117.5" height="60" as="geometry" />
        </mxCell>
        <mxCell id="Skk9IjnTPZE2Z5z-faYJ-67" value="Wall&amp;nbsp;&lt;br&gt;Switch&amp;nbsp;" style="rounded=0;whiteSpace=wrap;html=1;horizontal=1;verticalAlign=middle;align=right;" parent="aFMg3YP72EsfVgEZLQHG-12" vertex="1">
          <mxGeometry width="117.5" height="60" as="geometry" />
        </mxCell>
        <mxCell id="Skk9IjnTPZE2Z5z-faYJ-68" value="L" style="whiteSpace=wrap;html=1;aspect=fixed;fillColor=#f8cecc;strokeColor=#b85450;" parent="aFMg3YP72EsfVgEZLQHG-12" vertex="1">
          <mxGeometry x="10" y="16" width="28" height="28" as="geometry" />
        </mxCell>
        <mxCell id="Skk9IjnTPZE2Z5z-faYJ-69" value="R" style="whiteSpace=wrap;html=1;aspect=fixed;fillColor=#f8cecc;strokeColor=#b85450;" parent="aFMg3YP72EsfVgEZLQHG-12" vertex="1">
          <mxGeometry x="40" y="16" width="28" height="28" as="geometry" />
        </mxCell>
        <mxCell id="aFMg3YP72EsfVgEZLQHG-11" value="" style="group" vertex="1" connectable="0" parent="aFMg3YP72EsfVgEZLQHG-92">
          <mxGeometry x="351" y="900" width="177.5" height="60" as="geometry" />
        </mxCell>
        <mxCell id="Skk9IjnTPZE2Z5z-faYJ-70" value="PDU&amp;nbsp;" style="rounded=0;whiteSpace=wrap;html=1;horizontal=1;verticalAlign=middle;align=right;" parent="aFMg3YP72EsfVgEZLQHG-11" vertex="1">
          <mxGeometry width="177.5" height="60" as="geometry" />
        </mxCell>
        <mxCell id="Skk9IjnTPZE2Z5z-faYJ-71" value="2" style="whiteSpace=wrap;html=1;aspect=fixed;fillColor=#f8cecc;strokeColor=#b85450;" parent="aFMg3YP72EsfVgEZLQHG-11" vertex="1">
          <mxGeometry x="70" y="16" width="28" height="28" as="geometry" />
        </mxCell>
        <mxCell id="Skk9IjnTPZE2Z5z-faYJ-72" value="1" style="whiteSpace=wrap;html=1;aspect=fixed;fillColor=#f8cecc;strokeColor=#b85450;" parent="aFMg3YP72EsfVgEZLQHG-11" vertex="1">
          <mxGeometry x="100" y="16" width="28" height="28" as="geometry" />
        </mxCell>
        <mxCell id="Skk9IjnTPZE2Z5z-faYJ-73" value="4" style="whiteSpace=wrap;html=1;aspect=fixed;fillColor=#f8cecc;strokeColor=#b85450;" parent="aFMg3YP72EsfVgEZLQHG-11" vertex="1">
          <mxGeometry x="10" y="16" width="28" height="28" as="geometry" />
        </mxCell>
        <mxCell id="Skk9IjnTPZE2Z5z-faYJ-74" value="3" style="whiteSpace=wrap;html=1;aspect=fixed;fillColor=#f8cecc;strokeColor=#b85450;" parent="aFMg3YP72EsfVgEZLQHG-11" vertex="1">
          <mxGeometry x="40" y="16" width="28" height="28" as="geometry" />
        </mxCell>
        <mxCell id="aFMg3YP72EsfVgEZLQHG-62" value="" style="group" vertex="1" connectable="0" parent="aFMg3YP72EsfVgEZLQHG-92">
          <mxGeometry x="-170" y="928" width="322.5" height="60" as="geometry" />
        </mxCell>
        <mxCell id="aFMg3YP72EsfVgEZLQHG-47" value="PDU&amp;nbsp;&lt;br&gt;-01&amp;nbsp;" style="rounded=0;whiteSpace=wrap;html=1;horizontal=1;verticalAlign=middle;align=right;container=0;" vertex="1" parent="aFMg3YP72EsfVgEZLQHG-62">
          <mxGeometry width="322.5" height="60" as="geometry" />
        </mxCell>
        <mxCell id="aFMg3YP72EsfVgEZLQHG-48" value="3" style="whiteSpace=wrap;html=1;aspect=fixed;fillColor=#f8cecc;strokeColor=#b85450;container=0;" vertex="1" parent="aFMg3YP72EsfVgEZLQHG-62">
          <mxGeometry x="70" y="16" width="28" height="28" as="geometry" />
        </mxCell>
        <mxCell id="aFMg3YP72EsfVgEZLQHG-49" value="4" style="whiteSpace=wrap;html=1;aspect=fixed;fillColor=#f8cecc;strokeColor=#b85450;container=0;" vertex="1" parent="aFMg3YP72EsfVgEZLQHG-62">
          <mxGeometry x="100" y="16" width="28" height="28" as="geometry" />
        </mxCell>
        <mxCell id="aFMg3YP72EsfVgEZLQHG-50" value="1" style="whiteSpace=wrap;html=1;aspect=fixed;fillColor=#f8cecc;strokeColor=#b85450;container=0;" vertex="1" parent="aFMg3YP72EsfVgEZLQHG-62">
          <mxGeometry x="10" y="16" width="28" height="28" as="geometry" />
        </mxCell>
        <mxCell id="aFMg3YP72EsfVgEZLQHG-51" value="2" style="whiteSpace=wrap;html=1;aspect=fixed;fillColor=#f8cecc;strokeColor=#b85450;container=0;" vertex="1" parent="aFMg3YP72EsfVgEZLQHG-62">
          <mxGeometry x="40" y="16" width="28" height="28" as="geometry" />
        </mxCell>
        <mxCell id="aFMg3YP72EsfVgEZLQHG-52" value="7" style="whiteSpace=wrap;html=1;aspect=fixed;fillColor=#f8cecc;strokeColor=#b85450;container=0;" vertex="1" parent="aFMg3YP72EsfVgEZLQHG-62">
          <mxGeometry x="190" y="16" width="28" height="28" as="geometry" />
        </mxCell>
        <mxCell id="aFMg3YP72EsfVgEZLQHG-53" value="8" style="whiteSpace=wrap;html=1;aspect=fixed;fillColor=#f8cecc;strokeColor=#b85450;container=0;" vertex="1" parent="aFMg3YP72EsfVgEZLQHG-62">
          <mxGeometry x="220" y="16" width="28" height="28" as="geometry" />
        </mxCell>
        <mxCell id="aFMg3YP72EsfVgEZLQHG-54" value="5" style="whiteSpace=wrap;html=1;aspect=fixed;fillColor=#f8cecc;strokeColor=#b85450;container=0;" vertex="1" parent="aFMg3YP72EsfVgEZLQHG-62">
          <mxGeometry x="130" y="16" width="28" height="28" as="geometry" />
        </mxCell>
        <mxCell id="aFMg3YP72EsfVgEZLQHG-55" value="6" style="whiteSpace=wrap;html=1;aspect=fixed;fillColor=#f8cecc;strokeColor=#b85450;container=0;" vertex="1" parent="aFMg3YP72EsfVgEZLQHG-62">
          <mxGeometry x="160" y="16" width="28" height="28" as="geometry" />
        </mxCell>
        <mxCell id="aFMg3YP72EsfVgEZLQHG-61" value="1" style="whiteSpace=wrap;html=1;aspect=fixed;fillColor=#CCFFCC;strokeColor=#82b366;container=0;" vertex="1" parent="aFMg3YP72EsfVgEZLQHG-62">
          <mxGeometry x="250" y="16" width="28" height="28" as="geometry" />
        </mxCell>
        <mxCell id="aFMg3YP72EsfVgEZLQHG-42" value="" style="group" vertex="1" connectable="0" parent="aFMg3YP72EsfVgEZLQHG-92">
          <mxGeometry x="-360" y="967" width="117.5" height="60" as="geometry" />
        </mxCell>
        <mxCell id="aFMg3YP72EsfVgEZLQHG-156" value="??" style="edgeStyle=orthogonalEdgeStyle;rounded=0;orthogonalLoop=1;jettySize=auto;html=1;" edge="1" parent="aFMg3YP72EsfVgEZLQHG-42" source="aFMg3YP72EsfVgEZLQHG-140" target="Skk9IjnTPZE2Z5z-faYJ-14">
          <mxGeometry relative="1" as="geometry" />
        </mxCell>
        <mxCell id="aFMg3YP72EsfVgEZLQHG-43" value="Wall&amp;nbsp;&lt;br&gt;Switch&amp;nbsp;" style="rounded=0;whiteSpace=wrap;html=1;horizontal=1;verticalAlign=middle;align=right;" vertex="1" parent="aFMg3YP72EsfVgEZLQHG-42">
          <mxGeometry width="117.5" height="60" as="geometry" />
        </mxCell>
        <mxCell id="aFMg3YP72EsfVgEZLQHG-44" value="L" style="whiteSpace=wrap;html=1;aspect=fixed;fillColor=#f8cecc;strokeColor=#b85450;" vertex="1" parent="aFMg3YP72EsfVgEZLQHG-42">
          <mxGeometry x="10" y="16" width="28" height="28" as="geometry" />
        </mxCell>
        <mxCell id="aFMg3YP72EsfVgEZLQHG-45" value="R" style="whiteSpace=wrap;html=1;aspect=fixed;fillColor=#f8cecc;strokeColor=#b85450;" vertex="1" parent="aFMg3YP72EsfVgEZLQHG-42">
          <mxGeometry x="40" y="16" width="28" height="28" as="geometry" />
        </mxCell>
        <mxCell id="Skk9IjnTPZE2Z5z-faYJ-80" value="" style="endArrow=openThin;html=1;rounded=0;edgeStyle=orthogonalEdgeStyle;strokeColor=#b85450;startArrow=openThin;startFill=0;endFill=0;fillColor=#f8cecc;" parent="aFMg3YP72EsfVgEZLQHG-92" source="Skk9IjnTPZE2Z5z-faYJ-79" target="Skk9IjnTPZE2Z5z-faYJ-69" edge="1">
          <mxGeometry relative="1" as="geometry">
            <mxPoint x="571" y="630" as="sourcePoint" />
            <mxPoint x="445" y="816" as="targetPoint" />
          </mxGeometry>
        </mxCell>
        <mxCell id="Skk9IjnTPZE2Z5z-faYJ-75" value="" style="endArrow=openThin;html=1;rounded=0;edgeStyle=elbowEdgeStyle;elbow=vertical;strokeColor=#b85450;startArrow=openThin;startFill=0;endFill=0;exitX=1;exitY=0.5;exitDx=0;exitDy=0;fillColor=#f8cecc;" parent="aFMg3YP72EsfVgEZLQHG-92" source="Skk9IjnTPZE2Z5z-faYJ-70" target="Skk9IjnTPZE2Z5z-faYJ-68" edge="1">
          <mxGeometry relative="1" as="geometry">
            <mxPoint x="404.76" y="644" as="sourcePoint" />
            <mxPoint x="404.76" y="592" as="targetPoint" />
          </mxGeometry>
        </mxCell>
        <mxCell id="Skk9IjnTPZE2Z5z-faYJ-78" value="" style="endArrow=openThin;html=1;rounded=0;edgeStyle=orthogonalEdgeStyle;strokeColor=#b85450;startArrow=openThin;startFill=0;endFill=0;exitX=1;exitY=0.5;exitDx=0;exitDy=0;fillColor=#f8cecc;" parent="aFMg3YP72EsfVgEZLQHG-92" source="Skk9IjnTPZE2Z5z-faYJ-37" target="Skk9IjnTPZE2Z5z-faYJ-72" edge="1">
          <mxGeometry relative="1" as="geometry">
            <mxPoint x="521" y="310" as="sourcePoint" />
            <mxPoint x="386" y="686" as="targetPoint" />
          </mxGeometry>
        </mxCell>
        <mxCell id="Skk9IjnTPZE2Z5z-faYJ-76" value="" style="endArrow=openThin;html=1;rounded=0;edgeStyle=orthogonalEdgeStyle;strokeColor=#b85450;startArrow=openThin;startFill=0;endFill=0;exitX=1;exitY=0.5;exitDx=0;exitDy=0;entryX=0.5;entryY=0;entryDx=0;entryDy=0;fillColor=#f8cecc;" parent="aFMg3YP72EsfVgEZLQHG-92" source="Skk9IjnTPZE2Z5z-faYJ-50" target="Skk9IjnTPZE2Z5z-faYJ-71" edge="1">
          <mxGeometry relative="1" as="geometry">
            <mxPoint x="351" y="430" as="sourcePoint" />
            <mxPoint x="561" y="580.05" as="targetPoint" />
          </mxGeometry>
        </mxCell>
        <mxCell id="aFMg3YP72EsfVgEZLQHG-57" value="" style="endArrow=openThin;html=1;rounded=0;strokeColor=#b85450;startArrow=openThin;startFill=0;endFill=0;fillColor=#f8cecc;entryX=0;entryY=0.5;entryDx=0;entryDy=0;edgeStyle=orthogonalEdgeStyle;exitX=0.5;exitY=0;exitDx=0;exitDy=0;" edge="1" parent="aFMg3YP72EsfVgEZLQHG-92" source="aFMg3YP72EsfVgEZLQHG-44" target="aFMg3YP72EsfVgEZLQHG-47">
          <mxGeometry relative="1" as="geometry">
            <mxPoint x="-510" y="940" as="sourcePoint" />
            <mxPoint x="640" y="686" as="targetPoint" />
          </mxGeometry>
        </mxCell>
        <mxCell id="aFMg3YP72EsfVgEZLQHG-95" value="" style="group" vertex="1" connectable="0" parent="aFMg3YP72EsfVgEZLQHG-92">
          <mxGeometry x="-310" y="280" width="410" height="60" as="geometry" />
        </mxCell>
        <mxCell id="aFMg3YP72EsfVgEZLQHG-77" value="PDU&amp;nbsp;" style="rounded=0;whiteSpace=wrap;html=1;horizontal=1;verticalAlign=middle;align=right;container=0;" vertex="1" parent="aFMg3YP72EsfVgEZLQHG-95">
          <mxGeometry width="410" height="60" as="geometry" />
        </mxCell>
        <mxCell id="aFMg3YP72EsfVgEZLQHG-78" value="3" style="whiteSpace=wrap;html=1;aspect=fixed;fillColor=#f8cecc;strokeColor=#b85450;container=0;" vertex="1" parent="aFMg3YP72EsfVgEZLQHG-95">
          <mxGeometry x="70" y="16" width="28" height="28" as="geometry" />
        </mxCell>
        <mxCell id="aFMg3YP72EsfVgEZLQHG-79" value="4" style="whiteSpace=wrap;html=1;aspect=fixed;fillColor=#f8cecc;strokeColor=#b85450;container=0;" vertex="1" parent="aFMg3YP72EsfVgEZLQHG-95">
          <mxGeometry x="100" y="16" width="28" height="28" as="geometry" />
        </mxCell>
        <mxCell id="aFMg3YP72EsfVgEZLQHG-80" value="1" style="whiteSpace=wrap;html=1;aspect=fixed;fillColor=#f8cecc;strokeColor=#b85450;container=0;" vertex="1" parent="aFMg3YP72EsfVgEZLQHG-95">
          <mxGeometry x="10" y="16" width="28" height="28" as="geometry" />
        </mxCell>
        <mxCell id="aFMg3YP72EsfVgEZLQHG-81" value="2" style="whiteSpace=wrap;html=1;aspect=fixed;fillColor=#f8cecc;strokeColor=#b85450;container=0;" vertex="1" parent="aFMg3YP72EsfVgEZLQHG-95">
          <mxGeometry x="40" y="16" width="28" height="28" as="geometry" />
        </mxCell>
        <mxCell id="aFMg3YP72EsfVgEZLQHG-82" value="7" style="whiteSpace=wrap;html=1;aspect=fixed;fillColor=#f8cecc;strokeColor=#b85450;container=0;" vertex="1" parent="aFMg3YP72EsfVgEZLQHG-95">
          <mxGeometry x="190" y="16" width="28" height="28" as="geometry" />
        </mxCell>
        <mxCell id="aFMg3YP72EsfVgEZLQHG-83" value="8" style="whiteSpace=wrap;html=1;aspect=fixed;fillColor=#f8cecc;strokeColor=#b85450;container=0;" vertex="1" parent="aFMg3YP72EsfVgEZLQHG-95">
          <mxGeometry x="220" y="16" width="28" height="28" as="geometry" />
        </mxCell>
        <mxCell id="aFMg3YP72EsfVgEZLQHG-84" value="5" style="whiteSpace=wrap;html=1;aspect=fixed;fillColor=#f8cecc;strokeColor=#b85450;container=0;" vertex="1" parent="aFMg3YP72EsfVgEZLQHG-95">
          <mxGeometry x="130" y="16" width="28" height="28" as="geometry" />
        </mxCell>
        <mxCell id="aFMg3YP72EsfVgEZLQHG-85" value="6" style="whiteSpace=wrap;html=1;aspect=fixed;fillColor=#f8cecc;strokeColor=#b85450;container=0;" vertex="1" parent="aFMg3YP72EsfVgEZLQHG-95">
          <mxGeometry x="160" y="16" width="28" height="28" as="geometry" />
        </mxCell>
        <mxCell id="aFMg3YP72EsfVgEZLQHG-87" value="11" style="whiteSpace=wrap;html=1;aspect=fixed;fillColor=#f8cecc;strokeColor=#b85450;container=0;" vertex="1" parent="aFMg3YP72EsfVgEZLQHG-95">
          <mxGeometry x="310" y="16" width="28" height="28" as="geometry" />
        </mxCell>
        <mxCell id="aFMg3YP72EsfVgEZLQHG-88" value="12" style="whiteSpace=wrap;html=1;aspect=fixed;fillColor=#f8cecc;strokeColor=#b85450;container=0;" vertex="1" parent="aFMg3YP72EsfVgEZLQHG-95">
          <mxGeometry x="340" y="16" width="28" height="28" as="geometry" />
        </mxCell>
        <mxCell id="aFMg3YP72EsfVgEZLQHG-89" value="9" style="whiteSpace=wrap;html=1;aspect=fixed;fillColor=#f8cecc;strokeColor=#b85450;container=0;" vertex="1" parent="aFMg3YP72EsfVgEZLQHG-95">
          <mxGeometry x="250" y="16" width="28" height="28" as="geometry" />
        </mxCell>
        <mxCell id="aFMg3YP72EsfVgEZLQHG-90" value="10" style="whiteSpace=wrap;html=1;aspect=fixed;fillColor=#f8cecc;strokeColor=#b85450;container=0;" vertex="1" parent="aFMg3YP72EsfVgEZLQHG-95">
          <mxGeometry x="280" y="16" width="28" height="28" as="geometry" />
        </mxCell>
        <mxCell id="aFMg3YP72EsfVgEZLQHG-100" value="" style="group" vertex="1" connectable="0" parent="aFMg3YP72EsfVgEZLQHG-92">
          <mxGeometry x="-360" y="350" width="410" height="60" as="geometry" />
        </mxCell>
        <mxCell id="aFMg3YP72EsfVgEZLQHG-101" value="PDU&amp;nbsp;" style="rounded=0;whiteSpace=wrap;html=1;horizontal=1;verticalAlign=middle;align=right;container=0;" vertex="1" parent="aFMg3YP72EsfVgEZLQHG-100">
          <mxGeometry width="410" height="60" as="geometry" />
        </mxCell>
        <mxCell id="aFMg3YP72EsfVgEZLQHG-102" value="3" style="whiteSpace=wrap;html=1;aspect=fixed;fillColor=#f8cecc;strokeColor=#b85450;container=0;" vertex="1" parent="aFMg3YP72EsfVgEZLQHG-100">
          <mxGeometry x="70" y="16" width="28" height="28" as="geometry" />
        </mxCell>
        <mxCell id="aFMg3YP72EsfVgEZLQHG-103" value="4" style="whiteSpace=wrap;html=1;aspect=fixed;fillColor=#f8cecc;strokeColor=#b85450;container=0;" vertex="1" parent="aFMg3YP72EsfVgEZLQHG-100">
          <mxGeometry x="100" y="16" width="28" height="28" as="geometry" />
        </mxCell>
        <mxCell id="aFMg3YP72EsfVgEZLQHG-104" value="1" style="whiteSpace=wrap;html=1;aspect=fixed;fillColor=#f8cecc;strokeColor=#b85450;container=0;" vertex="1" parent="aFMg3YP72EsfVgEZLQHG-100">
          <mxGeometry x="10" y="16" width="28" height="28" as="geometry" />
        </mxCell>
        <mxCell id="aFMg3YP72EsfVgEZLQHG-105" value="2" style="whiteSpace=wrap;html=1;aspect=fixed;fillColor=#f8cecc;strokeColor=#b85450;container=0;" vertex="1" parent="aFMg3YP72EsfVgEZLQHG-100">
          <mxGeometry x="40" y="16" width="28" height="28" as="geometry" />
        </mxCell>
        <mxCell id="aFMg3YP72EsfVgEZLQHG-106" value="7" style="whiteSpace=wrap;html=1;aspect=fixed;fillColor=#f8cecc;strokeColor=#b85450;container=0;" vertex="1" parent="aFMg3YP72EsfVgEZLQHG-100">
          <mxGeometry x="190" y="16" width="28" height="28" as="geometry" />
        </mxCell>
        <mxCell id="aFMg3YP72EsfVgEZLQHG-107" value="8" style="whiteSpace=wrap;html=1;aspect=fixed;fillColor=#f8cecc;strokeColor=#b85450;container=0;" vertex="1" parent="aFMg3YP72EsfVgEZLQHG-100">
          <mxGeometry x="220" y="16" width="28" height="28" as="geometry" />
        </mxCell>
        <mxCell id="aFMg3YP72EsfVgEZLQHG-108" value="5" style="whiteSpace=wrap;html=1;aspect=fixed;fillColor=#f8cecc;strokeColor=#b85450;container=0;" vertex="1" parent="aFMg3YP72EsfVgEZLQHG-100">
          <mxGeometry x="130" y="16" width="28" height="28" as="geometry" />
        </mxCell>
        <mxCell id="aFMg3YP72EsfVgEZLQHG-109" value="6" style="whiteSpace=wrap;html=1;aspect=fixed;fillColor=#f8cecc;strokeColor=#b85450;container=0;" vertex="1" parent="aFMg3YP72EsfVgEZLQHG-100">
          <mxGeometry x="160" y="16" width="28" height="28" as="geometry" />
        </mxCell>
        <mxCell id="aFMg3YP72EsfVgEZLQHG-110" value="11" style="whiteSpace=wrap;html=1;aspect=fixed;fillColor=#f8cecc;strokeColor=#b85450;container=0;" vertex="1" parent="aFMg3YP72EsfVgEZLQHG-100">
          <mxGeometry x="310" y="16" width="28" height="28" as="geometry" />
        </mxCell>
        <mxCell id="aFMg3YP72EsfVgEZLQHG-111" value="12" style="whiteSpace=wrap;html=1;aspect=fixed;fillColor=#f8cecc;strokeColor=#b85450;container=0;" vertex="1" parent="aFMg3YP72EsfVgEZLQHG-100">
          <mxGeometry x="340" y="16" width="28" height="28" as="geometry" />
        </mxCell>
        <mxCell id="aFMg3YP72EsfVgEZLQHG-112" value="9" style="whiteSpace=wrap;html=1;aspect=fixed;fillColor=#f8cecc;strokeColor=#b85450;container=0;" vertex="1" parent="aFMg3YP72EsfVgEZLQHG-100">
          <mxGeometry x="250" y="16" width="28" height="28" as="geometry" />
        </mxCell>
        <mxCell id="aFMg3YP72EsfVgEZLQHG-113" value="10" style="whiteSpace=wrap;html=1;aspect=fixed;fillColor=#f8cecc;strokeColor=#b85450;container=0;" vertex="1" parent="aFMg3YP72EsfVgEZLQHG-100">
          <mxGeometry x="280" y="16" width="28" height="28" as="geometry" />
        </mxCell>
        <mxCell id="aFMg3YP72EsfVgEZLQHG-122" value="" style="group" vertex="1" connectable="0" parent="aFMg3YP72EsfVgEZLQHG-92">
          <mxGeometry x="-400" y="80" width="117.5" height="60" as="geometry" />
        </mxCell>
        <mxCell id="aFMg3YP72EsfVgEZLQHG-97" value="Wall&amp;nbsp;&lt;br&gt;Switch&amp;nbsp;" style="rounded=0;whiteSpace=wrap;html=1;horizontal=1;verticalAlign=middle;align=right;" vertex="1" parent="aFMg3YP72EsfVgEZLQHG-122">
          <mxGeometry width="117.5" height="60" as="geometry" />
        </mxCell>
        <mxCell id="aFMg3YP72EsfVgEZLQHG-96" value="" style="group" vertex="1" connectable="0" parent="aFMg3YP72EsfVgEZLQHG-122">
          <mxGeometry width="117.5" height="60" as="geometry" />
        </mxCell>
        <mxCell id="aFMg3YP72EsfVgEZLQHG-98" value="L" style="whiteSpace=wrap;html=1;aspect=fixed;fillColor=#f8cecc;strokeColor=#b85450;" vertex="1" parent="aFMg3YP72EsfVgEZLQHG-96">
          <mxGeometry x="10" y="16" width="28" height="28" as="geometry" />
        </mxCell>
        <mxCell id="aFMg3YP72EsfVgEZLQHG-99" value="R" style="whiteSpace=wrap;html=1;aspect=fixed;fillColor=#f8cecc;strokeColor=#b85450;" vertex="1" parent="aFMg3YP72EsfVgEZLQHG-96">
          <mxGeometry x="40" y="16" width="28" height="28" as="geometry" />
        </mxCell>
        <mxCell id="aFMg3YP72EsfVgEZLQHG-123" value="" style="group" vertex="1" connectable="0" parent="aFMg3YP72EsfVgEZLQHG-92">
          <mxGeometry x="-306.5" y="180" width="177.5" height="60" as="geometry" />
        </mxCell>
        <mxCell id="aFMg3YP72EsfVgEZLQHG-124" value="PDU&amp;nbsp;" style="rounded=0;whiteSpace=wrap;html=1;horizontal=1;verticalAlign=middle;align=right;" vertex="1" parent="aFMg3YP72EsfVgEZLQHG-123">
          <mxGeometry width="177.5" height="60" as="geometry" />
        </mxCell>
        <mxCell id="aFMg3YP72EsfVgEZLQHG-125" value="2" style="whiteSpace=wrap;html=1;aspect=fixed;fillColor=#f8cecc;strokeColor=#b85450;" vertex="1" parent="aFMg3YP72EsfVgEZLQHG-123">
          <mxGeometry x="70" y="16" width="28" height="28" as="geometry" />
        </mxCell>
        <mxCell id="aFMg3YP72EsfVgEZLQHG-126" value="1" style="whiteSpace=wrap;html=1;aspect=fixed;fillColor=#f8cecc;strokeColor=#b85450;" vertex="1" parent="aFMg3YP72EsfVgEZLQHG-123">
          <mxGeometry x="100" y="16" width="28" height="28" as="geometry" />
        </mxCell>
        <mxCell id="aFMg3YP72EsfVgEZLQHG-127" value="4" style="whiteSpace=wrap;html=1;aspect=fixed;fillColor=#f8cecc;strokeColor=#b85450;" vertex="1" parent="aFMg3YP72EsfVgEZLQHG-123">
          <mxGeometry x="10" y="16" width="28" height="28" as="geometry" />
        </mxCell>
        <mxCell id="aFMg3YP72EsfVgEZLQHG-128" value="3" style="whiteSpace=wrap;html=1;aspect=fixed;fillColor=#f8cecc;strokeColor=#b85450;" vertex="1" parent="aFMg3YP72EsfVgEZLQHG-123">
          <mxGeometry x="40" y="16" width="28" height="28" as="geometry" />
        </mxCell>
        <mxCell id="aFMg3YP72EsfVgEZLQHG-154" value="" style="group" vertex="1" connectable="0" parent="aFMg3YP72EsfVgEZLQHG-92">
          <mxGeometry x="-170" y="1007" width="230" height="60" as="geometry" />
        </mxCell>
        <mxCell id="aFMg3YP72EsfVgEZLQHG-140" value="PDU&amp;nbsp;" style="rounded=0;whiteSpace=wrap;html=1;horizontal=1;verticalAlign=middle;align=right;container=0;" vertex="1" parent="aFMg3YP72EsfVgEZLQHG-154">
          <mxGeometry width="230" height="60" as="geometry" />
        </mxCell>
        <mxCell id="aFMg3YP72EsfVgEZLQHG-141" value="3" style="whiteSpace=wrap;html=1;aspect=fixed;fillColor=#f8cecc;strokeColor=#b85450;container=0;" vertex="1" parent="aFMg3YP72EsfVgEZLQHG-154">
          <mxGeometry x="70" y="16" width="28" height="28" as="geometry" />
        </mxCell>
        <mxCell id="aFMg3YP72EsfVgEZLQHG-142" value="4" style="whiteSpace=wrap;html=1;aspect=fixed;fillColor=#f8cecc;strokeColor=#b85450;container=0;" vertex="1" parent="aFMg3YP72EsfVgEZLQHG-154">
          <mxGeometry x="100" y="16" width="28" height="28" as="geometry" />
        </mxCell>
        <mxCell id="aFMg3YP72EsfVgEZLQHG-143" value="1" style="whiteSpace=wrap;html=1;aspect=fixed;fillColor=#f8cecc;strokeColor=#b85450;container=0;" vertex="1" parent="aFMg3YP72EsfVgEZLQHG-154">
          <mxGeometry x="10" y="16" width="28" height="28" as="geometry" />
        </mxCell>
        <mxCell id="aFMg3YP72EsfVgEZLQHG-144" value="2" style="whiteSpace=wrap;html=1;aspect=fixed;fillColor=#f8cecc;strokeColor=#b85450;container=0;" vertex="1" parent="aFMg3YP72EsfVgEZLQHG-154">
          <mxGeometry x="40" y="16" width="28" height="28" as="geometry" />
        </mxCell>
        <mxCell id="aFMg3YP72EsfVgEZLQHG-147" value="5" style="whiteSpace=wrap;html=1;aspect=fixed;fillColor=#f8cecc;strokeColor=#b85450;container=0;" vertex="1" parent="aFMg3YP72EsfVgEZLQHG-154">
          <mxGeometry x="130" y="16" width="28" height="28" as="geometry" />
        </mxCell>
        <mxCell id="aFMg3YP72EsfVgEZLQHG-148" value="6" style="whiteSpace=wrap;html=1;aspect=fixed;fillColor=#f8cecc;strokeColor=#b85450;container=0;" vertex="1" parent="aFMg3YP72EsfVgEZLQHG-154">
          <mxGeometry x="160" y="16" width="28" height="28" as="geometry" />
        </mxCell>
        <mxCell id="aFMg3YP72EsfVgEZLQHG-159" value="??" style="edgeStyle=orthogonalEdgeStyle;rounded=0;orthogonalLoop=1;jettySize=auto;html=1;fillColor=#f8cecc;strokeColor=#b85450;" edge="1" parent="aFMg3YP72EsfVgEZLQHG-92" source="aFMg3YP72EsfVgEZLQHG-97" target="aFMg3YP72EsfVgEZLQHG-124">
          <mxGeometry relative="1" as="geometry">
            <mxPoint x="-860" y="150" as="sourcePoint" />
            <mxPoint x="-604" y="190" as="targetPoint" />
          </mxGeometry>
        </mxCell>
        <mxCell id="aFMg3YP72EsfVgEZLQHG-161" value="??" style="edgeStyle=orthogonalEdgeStyle;rounded=0;orthogonalLoop=1;jettySize=auto;html=1;fillColor=#f8cecc;strokeColor=#b85450;" edge="1" parent="aFMg3YP72EsfVgEZLQHG-92" source="aFMg3YP72EsfVgEZLQHG-97" target="aFMg3YP72EsfVgEZLQHG-101">
          <mxGeometry relative="1" as="geometry">
            <mxPoint x="-820" y="150" as="sourcePoint" />
            <mxPoint x="-564" y="190" as="targetPoint" />
            <Array as="points">
              <mxPoint x="-390" y="350" />
            </Array>
          </mxGeometry>
        </mxCell>
        <mxCell id="aFMg3YP72EsfVgEZLQHG-160" value="??" style="rounded=0;orthogonalLoop=1;jettySize=auto;html=1;fillColor=#f8cecc;strokeColor=#b85450;edgeStyle=orthogonalEdgeStyle;" edge="1" parent="aFMg3YP72EsfVgEZLQHG-92" source="aFMg3YP72EsfVgEZLQHG-124" target="aFMg3YP72EsfVgEZLQHG-77">
          <mxGeometry relative="1" as="geometry">
            <mxPoint x="-880" y="240" as="sourcePoint" />
            <mxPoint x="-624" y="280" as="targetPoint" />
          </mxGeometry>
        </mxCell>
        <mxCell id="aFMg3YP72EsfVgEZLQHG-155" value="" style="endArrow=openThin;html=1;rounded=0;strokeColor=#b85450;startArrow=openThin;startFill=0;endFill=0;fillColor=#f8cecc;entryX=0;entryY=0.5;entryDx=0;entryDy=0;exitX=0.5;exitY=1;exitDx=0;exitDy=0;edgeStyle=orthogonalEdgeStyle;" edge="1" parent="aFMg3YP72EsfVgEZLQHG-92" source="aFMg3YP72EsfVgEZLQHG-45" target="aFMg3YP72EsfVgEZLQHG-140">
          <mxGeometry relative="1" as="geometry">
            <mxPoint x="-286" y="954" as="sourcePoint" />
            <mxPoint x="-160" y="940" as="targetPoint" />
          </mxGeometry>
        </mxCell>
        <mxCell id="aFMg3YP72EsfVgEZLQHG-169" value="" style="group" vertex="1" connectable="0" parent="aFMg3YP72EsfVgEZLQHG-92">
          <mxGeometry x="540" y="250" width="117.5" height="60" as="geometry" />
        </mxCell>
        <mxCell id="aFMg3YP72EsfVgEZLQHG-170" value="Wall&amp;nbsp;&lt;br&gt;Switch&amp;nbsp;" style="rounded=0;whiteSpace=wrap;html=1;horizontal=1;verticalAlign=middle;align=right;" vertex="1" parent="aFMg3YP72EsfVgEZLQHG-169">
          <mxGeometry width="117.5" height="60" as="geometry" />
        </mxCell>
        <mxCell id="aFMg3YP72EsfVgEZLQHG-171" value="" style="group" vertex="1" connectable="0" parent="aFMg3YP72EsfVgEZLQHG-169">
          <mxGeometry width="117.5" height="60" as="geometry" />
        </mxCell>
        <mxCell id="aFMg3YP72EsfVgEZLQHG-172" value="L" style="whiteSpace=wrap;html=1;aspect=fixed;fillColor=#f8cecc;strokeColor=#b85450;" vertex="1" parent="aFMg3YP72EsfVgEZLQHG-171">
          <mxGeometry x="10" y="16" width="28" height="28" as="geometry" />
        </mxCell>
        <mxCell id="aFMg3YP72EsfVgEZLQHG-173" value="R" style="whiteSpace=wrap;html=1;aspect=fixed;fillColor=#f8cecc;strokeColor=#b85450;" vertex="1" parent="aFMg3YP72EsfVgEZLQHG-171">
          <mxGeometry x="40" y="16" width="28" height="28" as="geometry" />
        </mxCell>
        <mxCell id="aFMg3YP72EsfVgEZLQHG-93" value="Network" parent="0" />
        <mxCell id="Skk9IjnTPZE2Z5z-faYJ-84" value="U6 Pro" style="shape=image;verticalLabelPosition=bottom;labelBackgroundColor=default;verticalAlign=top;aspect=fixed;imageAspect=0;image=https://www.techconnect.nl/wp-content/uploads/2021/05/u6pro1-510x510.png;horizontal=1;imageBackground=#66FFFF;" parent="aFMg3YP72EsfVgEZLQHG-93" vertex="1">
          <mxGeometry x="-510" y="730" width="60" height="60" as="geometry" />
        </mxCell>
        <mxCell id="Skk9IjnTPZE2Z5z-faYJ-87" value="U6 Mesh" style="shape=image;verticalLabelPosition=bottom;labelBackgroundColor=default;verticalAlign=top;aspect=fixed;imageAspect=0;image=https://notebookcentre.am/wa-data/public/shop/products/89/43/4389/images/8268/8268.750x0.png;imageBackground=#66FFFF;" parent="aFMg3YP72EsfVgEZLQHG-93" vertex="1">
          <mxGeometry x="-650" y="780" width="50" height="50" as="geometry" />
        </mxCell>
        <mxCell id="Skk9IjnTPZE2Z5z-faYJ-88" value="" style="endArrow=openThin;html=1;rounded=0;edgeStyle=orthogonalEdgeStyle;strokeColor=#000000;startArrow=openThin;startFill=0;endFill=0;fillColor=#f8cecc;entryX=1;entryY=0.5;entryDx=0;entryDy=0;" parent="aFMg3YP72EsfVgEZLQHG-93" source="Skk9IjnTPZE2Z5z-faYJ-84" target="Skk9IjnTPZE2Z5z-faYJ-87" edge="1">
          <mxGeometry relative="1" as="geometry">
            <mxPoint x="-110" y="87" as="sourcePoint" />
            <mxPoint x="245" y="619" as="targetPoint" />
          </mxGeometry>
        </mxCell>
        <mxCell id="aFMg3YP72EsfVgEZLQHG-2" value="FlexHD" style="shape=image;verticalLabelPosition=bottom;labelBackgroundColor=default;verticalAlign=top;aspect=fixed;imageAspect=0;image=https://images.squarespace-cdn.com/content/v1/5d3c73c906ac510001158d1b/1597462274253-HWKF37CHF7PH38F78H7J/U6-Mesh+1.png;imageBackground=#66FFFF;" vertex="1" parent="aFMg3YP72EsfVgEZLQHG-93">
          <mxGeometry x="-650" y="690" width="55" height="55" as="geometry" />
        </mxCell>
        <mxCell id="aFMg3YP72EsfVgEZLQHG-3" value="" style="endArrow=openThin;html=1;rounded=0;edgeStyle=orthogonalEdgeStyle;strokeColor=#000000;startArrow=openThin;startFill=0;endFill=0;fillColor=#f8cecc;" edge="1" parent="aFMg3YP72EsfVgEZLQHG-93" source="Skk9IjnTPZE2Z5z-faYJ-84" target="aFMg3YP72EsfVgEZLQHG-2">
          <mxGeometry relative="1" as="geometry">
            <mxPoint x="-100" y="164" as="sourcePoint" />
            <mxPoint x="-140" y="500" as="targetPoint" />
          </mxGeometry>
        </mxCell>
        <mxCell id="aFMg3YP72EsfVgEZLQHG-7" value="" style="group" vertex="1" connectable="0" parent="aFMg3YP72EsfVgEZLQHG-93">
          <mxGeometry x="-300" y="770" width="260" height="100" as="geometry" />
        </mxCell>
        <mxCell id="aFMg3YP72EsfVgEZLQHG-70" value="" style="group" vertex="1" connectable="0" parent="aFMg3YP72EsfVgEZLQHG-7">
          <mxGeometry width="260" height="100" as="geometry" />
        </mxCell>
        <mxCell id="Skk9IjnTPZE2Z5z-faYJ-14" value="USW-Lite-16-PoE" style="rounded=0;whiteSpace=wrap;html=1;horizontal=1;verticalAlign=middle;align=center;" parent="aFMg3YP72EsfVgEZLQHG-70" vertex="1">
          <mxGeometry width="260" height="100" as="geometry" />
        </mxCell>
        <mxCell id="Skk9IjnTPZE2Z5z-faYJ-15" value="1" style="whiteSpace=wrap;html=1;aspect=fixed;fillColor=#97D077;strokeColor=#82b366;" parent="aFMg3YP72EsfVgEZLQHG-70" vertex="1">
          <mxGeometry x="10" y="10" width="28" height="28" as="geometry" />
        </mxCell>
        <mxCell id="Skk9IjnTPZE2Z5z-faYJ-16" value="3" style="whiteSpace=wrap;html=1;aspect=fixed;fillColor=#97D077;strokeColor=#82b366;" parent="aFMg3YP72EsfVgEZLQHG-70" vertex="1">
          <mxGeometry x="40" y="10" width="28" height="28" as="geometry" />
        </mxCell>
        <mxCell id="Skk9IjnTPZE2Z5z-faYJ-17" value="5" style="whiteSpace=wrap;html=1;aspect=fixed;fillColor=#97D077;strokeColor=#82b366;" parent="aFMg3YP72EsfVgEZLQHG-70" vertex="1">
          <mxGeometry x="70" y="10" width="28" height="28" as="geometry" />
        </mxCell>
        <mxCell id="Skk9IjnTPZE2Z5z-faYJ-18" value="7" style="whiteSpace=wrap;html=1;aspect=fixed;fillColor=#97D077;strokeColor=#82b366;" parent="aFMg3YP72EsfVgEZLQHG-70" vertex="1">
          <mxGeometry x="100" y="10" width="28" height="28" as="geometry" />
        </mxCell>
        <mxCell id="Skk9IjnTPZE2Z5z-faYJ-19" value="9" style="whiteSpace=wrap;html=1;aspect=fixed;fillColor=#97D077;strokeColor=#82b366;" parent="aFMg3YP72EsfVgEZLQHG-70" vertex="1">
          <mxGeometry x="130" y="10" width="28" height="28" as="geometry" />
        </mxCell>
        <mxCell id="Skk9IjnTPZE2Z5z-faYJ-20" value="11" style="whiteSpace=wrap;html=1;aspect=fixed;fillColor=#97D077;strokeColor=#82b366;" parent="aFMg3YP72EsfVgEZLQHG-70" vertex="1">
          <mxGeometry x="160" y="10" width="28" height="28" as="geometry" />
        </mxCell>
        <mxCell id="Skk9IjnTPZE2Z5z-faYJ-21" value="13" style="whiteSpace=wrap;html=1;aspect=fixed;fillColor=#97D077;strokeColor=#82b366;" parent="aFMg3YP72EsfVgEZLQHG-70" vertex="1">
          <mxGeometry x="190" y="10" width="28" height="28" as="geometry" />
        </mxCell>
        <mxCell id="Skk9IjnTPZE2Z5z-faYJ-22" value="15" style="whiteSpace=wrap;html=1;aspect=fixed;fillColor=#97D077;strokeColor=#82b366;" parent="aFMg3YP72EsfVgEZLQHG-70" vertex="1">
          <mxGeometry x="220" y="10" width="28" height="28" as="geometry" />
        </mxCell>
        <mxCell id="Skk9IjnTPZE2Z5z-faYJ-23" value="2" style="whiteSpace=wrap;html=1;aspect=fixed;fillColor=#d5e8d4;strokeColor=#82b366;" parent="aFMg3YP72EsfVgEZLQHG-70" vertex="1">
          <mxGeometry x="10" y="60" width="28" height="28" as="geometry" />
        </mxCell>
        <mxCell id="Skk9IjnTPZE2Z5z-faYJ-24" value="4" style="whiteSpace=wrap;html=1;aspect=fixed;fillColor=#d5e8d4;strokeColor=#82b366;" parent="aFMg3YP72EsfVgEZLQHG-70" vertex="1">
          <mxGeometry x="40" y="60" width="28" height="28" as="geometry" />
        </mxCell>
        <mxCell id="Skk9IjnTPZE2Z5z-faYJ-25" value="6" style="whiteSpace=wrap;html=1;aspect=fixed;fillColor=#d5e8d4;strokeColor=#82b366;" parent="aFMg3YP72EsfVgEZLQHG-70" vertex="1">
          <mxGeometry x="70" y="60" width="28" height="28" as="geometry" />
        </mxCell>
        <mxCell id="Skk9IjnTPZE2Z5z-faYJ-26" value="8" style="whiteSpace=wrap;html=1;aspect=fixed;fillColor=#d5e8d4;strokeColor=#82b366;" parent="aFMg3YP72EsfVgEZLQHG-70" vertex="1">
          <mxGeometry x="100" y="60" width="28" height="28" as="geometry" />
        </mxCell>
        <mxCell id="Skk9IjnTPZE2Z5z-faYJ-32" value="10" style="whiteSpace=wrap;html=1;aspect=fixed;fillColor=#d5e8d4;strokeColor=#82b366;" parent="aFMg3YP72EsfVgEZLQHG-70" vertex="1">
          <mxGeometry x="130" y="60" width="28" height="28" as="geometry" />
        </mxCell>
        <mxCell id="Skk9IjnTPZE2Z5z-faYJ-33" value="12" style="whiteSpace=wrap;html=1;aspect=fixed;fillColor=#d5e8d4;strokeColor=#82b366;" parent="aFMg3YP72EsfVgEZLQHG-70" vertex="1">
          <mxGeometry x="160" y="60" width="28" height="28" as="geometry" />
        </mxCell>
        <mxCell id="Skk9IjnTPZE2Z5z-faYJ-34" value="14" style="whiteSpace=wrap;html=1;aspect=fixed;fillColor=#d5e8d4;strokeColor=#82b366;" parent="aFMg3YP72EsfVgEZLQHG-70" vertex="1">
          <mxGeometry x="190" y="60" width="28" height="28" as="geometry" />
        </mxCell>
        <mxCell id="Skk9IjnTPZE2Z5z-faYJ-35" value="16" style="whiteSpace=wrap;html=1;aspect=fixed;fillColor=#d5e8d4;strokeColor=#82b366;" parent="aFMg3YP72EsfVgEZLQHG-70" vertex="1">
          <mxGeometry x="220" y="60" width="28" height="28" as="geometry" />
        </mxCell>
        <mxCell id="Skk9IjnTPZE2Z5z-faYJ-86" value="" style="endArrow=openThin;html=1;rounded=0;elbow=vertical;strokeColor=#82b366;startArrow=openThin;startFill=0;endFill=0;fillColor=#d5e8d4;exitX=0.5;exitY=0;exitDx=0;exitDy=0;edgeStyle=orthogonalEdgeStyle;" parent="aFMg3YP72EsfVgEZLQHG-93" source="Skk9IjnTPZE2Z5z-faYJ-15" target="Skk9IjnTPZE2Z5z-faYJ-84" edge="1">
          <mxGeometry relative="1" as="geometry">
            <mxPoint x="418.31" y="230" as="sourcePoint" />
            <mxPoint x="418.31" y="192" as="targetPoint" />
          </mxGeometry>
        </mxCell>
        <mxCell id="aFMg3YP72EsfVgEZLQHG-69" value="" style="endArrow=openThin;html=1;rounded=0;edgeStyle=elbowEdgeStyle;strokeColor=#82b366;startArrow=openThin;startFill=0;endFill=0;fillColor=#d5e8d4;exitX=0.5;exitY=1;exitDx=0;exitDy=0;entryX=0.5;entryY=1;entryDx=0;entryDy=0;elbow=vertical;" edge="1" parent="aFMg3YP72EsfVgEZLQHG-93" source="Skk9IjnTPZE2Z5z-faYJ-33" target="aFMg3YP72EsfVgEZLQHG-66">
          <mxGeometry relative="1" as="geometry">
            <mxPoint x="220" y="165" as="sourcePoint" />
            <mxPoint x="-250" y="250" as="targetPoint" />
            <Array as="points">
              <mxPoint x="-60" y="880" />
            </Array>
          </mxGeometry>
        </mxCell>
        <mxCell id="aFMg3YP72EsfVgEZLQHG-71" value="" style="endArrow=openThin;html=1;rounded=0;elbow=vertical;strokeColor=#82b366;startArrow=openThin;startFill=0;endFill=0;fillColor=#d5e8d4;exitX=0.5;exitY=0;exitDx=0;exitDy=0;edgeStyle=orthogonalEdgeStyle;" edge="1" parent="aFMg3YP72EsfVgEZLQHG-93" source="Skk9IjnTPZE2Z5z-faYJ-22" target="aFMg3YP72EsfVgEZLQHG-37">
          <mxGeometry relative="1" as="geometry">
            <mxPoint x="166" y="229" as="sourcePoint" />
            <mxPoint x="170" y="290" as="targetPoint" />
          </mxGeometry>
        </mxCell>
        <mxCell id="aFMg3YP72EsfVgEZLQHG-39" value="" style="endArrow=openThin;html=1;rounded=0;edgeStyle=orthogonalEdgeStyle;elbow=vertical;strokeColor=#82b366;startArrow=openThin;startFill=0;endFill=0;fillColor=#d5e8d4;exitX=0.5;exitY=1;exitDx=0;exitDy=0;" edge="1" parent="aFMg3YP72EsfVgEZLQHG-93" source="Skk9IjnTPZE2Z5z-faYJ-35" target="aFMg3YP72EsfVgEZLQHG-37">
          <mxGeometry relative="1" as="geometry">
            <mxPoint x="284" y="228" as="sourcePoint" />
            <mxPoint x="451" y="571" as="targetPoint" />
          </mxGeometry>
        </mxCell>
        <mxCell id="aFMg3YP72EsfVgEZLQHG-8" value="" style="group" vertex="1" connectable="0" parent="aFMg3YP72EsfVgEZLQHG-93">
          <mxGeometry x="420" y="580" width="230" height="100" as="geometry" />
        </mxCell>
        <mxCell id="Skk9IjnTPZE2Z5z-faYJ-37" value="UDM Pro" style="rounded=0;whiteSpace=wrap;html=1;horizontal=1;verticalAlign=middle;align=center;" parent="aFMg3YP72EsfVgEZLQHG-8" vertex="1">
          <mxGeometry width="230" height="100" as="geometry" />
        </mxCell>
        <mxCell id="Skk9IjnTPZE2Z5z-faYJ-38" value="1" style="whiteSpace=wrap;html=1;aspect=fixed;fillColor=#d5e8d4;strokeColor=#82b366;" parent="aFMg3YP72EsfVgEZLQHG-8" vertex="1">
          <mxGeometry x="10" y="10" width="28" height="28" as="geometry" />
        </mxCell>
        <mxCell id="Skk9IjnTPZE2Z5z-faYJ-39" value="2" style="whiteSpace=wrap;html=1;aspect=fixed;fillColor=#d5e8d4;strokeColor=#82b366;" parent="aFMg3YP72EsfVgEZLQHG-8" vertex="1">
          <mxGeometry x="40" y="10" width="28" height="28" as="geometry" />
        </mxCell>
        <mxCell id="Skk9IjnTPZE2Z5z-faYJ-40" value="3" style="whiteSpace=wrap;html=1;aspect=fixed;fillColor=#d5e8d4;strokeColor=#82b366;" parent="aFMg3YP72EsfVgEZLQHG-8" vertex="1">
          <mxGeometry x="70" y="10" width="28" height="28" as="geometry" />
        </mxCell>
        <mxCell id="Skk9IjnTPZE2Z5z-faYJ-41" value="4" style="whiteSpace=wrap;html=1;aspect=fixed;fillColor=#d5e8d4;strokeColor=#82b366;" parent="aFMg3YP72EsfVgEZLQHG-8" vertex="1">
          <mxGeometry x="100" y="10" width="28" height="28" as="geometry" />
        </mxCell>
        <mxCell id="Skk9IjnTPZE2Z5z-faYJ-42" value="5" style="whiteSpace=wrap;html=1;aspect=fixed;fillColor=#d5e8d4;strokeColor=#82b366;" parent="aFMg3YP72EsfVgEZLQHG-8" vertex="1">
          <mxGeometry x="10" y="60" width="28" height="28" as="geometry" />
        </mxCell>
        <mxCell id="Skk9IjnTPZE2Z5z-faYJ-43" value="6" style="whiteSpace=wrap;html=1;aspect=fixed;fillColor=#d5e8d4;strokeColor=#82b366;" parent="aFMg3YP72EsfVgEZLQHG-8" vertex="1">
          <mxGeometry x="40" y="60" width="28" height="28" as="geometry" />
        </mxCell>
        <mxCell id="Skk9IjnTPZE2Z5z-faYJ-44" value="7" style="whiteSpace=wrap;html=1;aspect=fixed;fillColor=#d5e8d4;strokeColor=#82b366;" parent="aFMg3YP72EsfVgEZLQHG-8" vertex="1">
          <mxGeometry x="70" y="60" width="28" height="28" as="geometry" />
        </mxCell>
        <mxCell id="Skk9IjnTPZE2Z5z-faYJ-45" value="8" style="whiteSpace=wrap;html=1;aspect=fixed;fillColor=#d5e8d4;strokeColor=#82b366;" parent="aFMg3YP72EsfVgEZLQHG-8" vertex="1">
          <mxGeometry x="100" y="60" width="28" height="28" as="geometry" />
        </mxCell>
        <mxCell id="Skk9IjnTPZE2Z5z-faYJ-46" value="9" style="whiteSpace=wrap;html=1;aspect=fixed;fillColor=#d5e8d4;strokeColor=#82b366;" parent="aFMg3YP72EsfVgEZLQHG-8" vertex="1">
          <mxGeometry x="160" y="60" width="28" height="28" as="geometry" />
        </mxCell>
        <mxCell id="Skk9IjnTPZE2Z5z-faYJ-47" value="10" style="whiteSpace=wrap;html=1;aspect=fixed;fillColor=#d5e8d4;strokeColor=#82b366;" parent="aFMg3YP72EsfVgEZLQHG-8" vertex="1">
          <mxGeometry x="190" y="10" width="28" height="28" as="geometry" />
        </mxCell>
        <mxCell id="Skk9IjnTPZE2Z5z-faYJ-48" value="11" style="whiteSpace=wrap;html=1;aspect=fixed;fillColor=#d5e8d4;strokeColor=#82b366;" parent="aFMg3YP72EsfVgEZLQHG-8" vertex="1">
          <mxGeometry x="190" y="60" width="28" height="28" as="geometry" />
        </mxCell>
        <mxCell id="aFMg3YP72EsfVgEZLQHG-35" value="" style="group" vertex="1" connectable="0" parent="aFMg3YP72EsfVgEZLQHG-93">
          <mxGeometry x="-400" y="690" width="261" height="50" as="geometry" />
        </mxCell>
        <mxCell id="aFMg3YP72EsfVgEZLQHG-15" value="USW-Flex-Mini&amp;nbsp;" style="rounded=0;whiteSpace=wrap;html=1;horizontal=1;verticalAlign=middle;align=right;container=0;" vertex="1" parent="aFMg3YP72EsfVgEZLQHG-35">
          <mxGeometry width="261" height="50" as="geometry" />
        </mxCell>
        <mxCell id="aFMg3YP72EsfVgEZLQHG-16" value="1" style="whiteSpace=wrap;html=1;aspect=fixed;fillColor=#d5e8d4;strokeColor=#82b366;container=0;" vertex="1" parent="aFMg3YP72EsfVgEZLQHG-35">
          <mxGeometry x="8" y="11" width="28" height="28" as="geometry" />
        </mxCell>
        <mxCell id="aFMg3YP72EsfVgEZLQHG-17" value="2" style="whiteSpace=wrap;html=1;aspect=fixed;fillColor=#d5e8d4;strokeColor=#82b366;container=0;" vertex="1" parent="aFMg3YP72EsfVgEZLQHG-35">
          <mxGeometry x="38" y="11" width="28" height="28" as="geometry" />
        </mxCell>
        <mxCell id="aFMg3YP72EsfVgEZLQHG-18" value="3" style="whiteSpace=wrap;html=1;aspect=fixed;fillColor=#d5e8d4;strokeColor=#82b366;container=0;" vertex="1" parent="aFMg3YP72EsfVgEZLQHG-35">
          <mxGeometry x="68" y="11" width="28" height="28" as="geometry" />
        </mxCell>
        <mxCell id="aFMg3YP72EsfVgEZLQHG-19" value="4" style="whiteSpace=wrap;html=1;aspect=fixed;fillColor=#d5e8d4;strokeColor=#82b366;container=0;" vertex="1" parent="aFMg3YP72EsfVgEZLQHG-35">
          <mxGeometry x="98" y="11" width="28" height="28" as="geometry" />
        </mxCell>
        <mxCell id="aFMg3YP72EsfVgEZLQHG-34" value="5" style="whiteSpace=wrap;html=1;aspect=fixed;fillColor=#d5e8d4;strokeColor=#82b366;container=0;" vertex="1" parent="aFMg3YP72EsfVgEZLQHG-35">
          <mxGeometry x="128" y="11" width="28" height="28" as="geometry" />
        </mxCell>
        <mxCell id="aFMg3YP72EsfVgEZLQHG-32" value="" style="endArrow=openThin;html=1;rounded=0;edgeStyle=elbowEdgeStyle;elbow=vertical;strokeColor=#82b366;startArrow=openThin;startFill=0;endFill=0;fillColor=#d5e8d4;" edge="1" parent="aFMg3YP72EsfVgEZLQHG-93" source="aFMg3YP72EsfVgEZLQHG-34" target="aFMg3YP72EsfVgEZLQHG-30">
          <mxGeometry relative="1" as="geometry">
            <mxPoint x="-969.5" y="1076" as="sourcePoint" />
            <mxPoint x="-984.5" y="1056" as="targetPoint" />
            <Array as="points">
              <mxPoint x="-200" y="580" />
            </Array>
          </mxGeometry>
        </mxCell>
        <mxCell id="aFMg3YP72EsfVgEZLQHG-36" value="" style="endArrow=openThin;html=1;rounded=0;edgeStyle=elbowEdgeStyle;elbow=vertical;strokeColor=#82b366;startArrow=openThin;startFill=0;endFill=0;fillColor=#d5e8d4;" edge="1" parent="aFMg3YP72EsfVgEZLQHG-93" source="aFMg3YP72EsfVgEZLQHG-19" target="aFMg3YP72EsfVgEZLQHG-29">
          <mxGeometry relative="1" as="geometry">
            <mxPoint x="-237.5" y="755" as="sourcePoint" />
            <mxPoint x="-184.5" y="811" as="targetPoint" />
          </mxGeometry>
        </mxCell>
        <mxCell id="aFMg3YP72EsfVgEZLQHG-31" value="" style="endArrow=openThin;html=1;rounded=0;strokeColor=#82b366;startArrow=openThin;startFill=0;endFill=0;fillColor=#d5e8d4;elbow=vertical;exitX=0.25;exitY=1;exitDx=0;exitDy=0;edgeStyle=orthogonalEdgeStyle;" edge="1" parent="aFMg3YP72EsfVgEZLQHG-93" source="Skk9IjnTPZE2Z5z-faYJ-26" target="aFMg3YP72EsfVgEZLQHG-16">
          <mxGeometry relative="1" as="geometry">
            <mxPoint x="59" y="280" as="sourcePoint" />
            <mxPoint x="44" y="228" as="targetPoint" />
            <Array as="points">
              <mxPoint x="-193" y="880" />
              <mxPoint x="-378" y="880" />
            </Array>
          </mxGeometry>
        </mxCell>
        <mxCell id="aFMg3YP72EsfVgEZLQHG-9" value="" style="group" vertex="1" connectable="0" parent="aFMg3YP72EsfVgEZLQHG-93">
          <mxGeometry x="221" y="820" width="117.5" height="60" as="geometry" />
        </mxCell>
        <mxCell id="Skk9IjnTPZE2Z5z-faYJ-50" value="EE&amp;nbsp;&lt;br&gt;Modem&amp;nbsp;" style="rounded=0;whiteSpace=wrap;html=1;horizontal=1;verticalAlign=middle;align=right;" parent="aFMg3YP72EsfVgEZLQHG-9" vertex="1">
          <mxGeometry x="1" width="117.5" height="60" as="geometry" />
        </mxCell>
        <mxCell id="Skk9IjnTPZE2Z5z-faYJ-51" value="DSL" style="whiteSpace=wrap;html=1;aspect=fixed;fillColor=#d5e8d4;strokeColor=#82b366;" parent="aFMg3YP72EsfVgEZLQHG-9" vertex="1">
          <mxGeometry x="10" y="16" width="28" height="28" as="geometry" />
        </mxCell>
        <mxCell id="Skk9IjnTPZE2Z5z-faYJ-52" value="LAN" style="whiteSpace=wrap;html=1;aspect=fixed;fillColor=#d5e8d4;strokeColor=#82b366;" parent="aFMg3YP72EsfVgEZLQHG-9" vertex="1">
          <mxGeometry x="40" y="16" width="28" height="28" as="geometry" />
        </mxCell>
        <mxCell id="aFMg3YP72EsfVgEZLQHG-10" value="" style="group" vertex="1" connectable="0" parent="aFMg3YP72EsfVgEZLQHG-93">
          <mxGeometry x="221" y="900" width="117.5" height="60" as="geometry" />
        </mxCell>
        <mxCell id="Skk9IjnTPZE2Z5z-faYJ-54" value="Open&amp;nbsp;&lt;br&gt;Reach&amp;nbsp;&lt;br&gt;Master&lt;br&gt;Socket 5c" style="rounded=0;whiteSpace=wrap;html=1;horizontal=1;verticalAlign=middle;align=right;" parent="aFMg3YP72EsfVgEZLQHG-10" vertex="1">
          <mxGeometry width="117.5" height="60" as="geometry" />
        </mxCell>
        <mxCell id="Skk9IjnTPZE2Z5z-faYJ-55" value="G&lt;br&gt;fast" style="whiteSpace=wrap;html=1;aspect=fixed;fillColor=#d5e8d4;strokeColor=#82b366;" parent="aFMg3YP72EsfVgEZLQHG-10" vertex="1">
          <mxGeometry x="10" y="16" width="28" height="28" as="geometry" />
        </mxCell>
        <mxCell id="Skk9IjnTPZE2Z5z-faYJ-56" value="Tel." style="whiteSpace=wrap;html=1;aspect=fixed;fillColor=#d5e8d4;strokeColor=#82b366;" parent="aFMg3YP72EsfVgEZLQHG-10" vertex="1">
          <mxGeometry x="40" y="16" width="28" height="28" as="geometry" />
        </mxCell>
        <mxCell id="Skk9IjnTPZE2Z5z-faYJ-60" value="" style="endArrow=openThin;html=1;rounded=0;edgeStyle=elbowEdgeStyle;elbow=vertical;strokeColor=default;startArrow=openThin;startFill=0;endFill=0;" parent="aFMg3YP72EsfVgEZLQHG-93" source="Skk9IjnTPZE2Z5z-faYJ-59" target="Skk9IjnTPZE2Z5z-faYJ-55" edge="1">
          <mxGeometry relative="1" as="geometry">
            <mxPoint x="222" y="496" as="sourcePoint" />
            <mxPoint x="222" y="430" as="targetPoint" />
          </mxGeometry>
        </mxCell>
        <mxCell id="Skk9IjnTPZE2Z5z-faYJ-59" value="Internet" style="image;aspect=fixed;perimeter=ellipsePerimeter;html=1;align=center;shadow=0;dashed=0;spacingTop=3;image=img/lib/active_directory/internet_globe.svg;verticalAlign=top;horizontal=1;" parent="aFMg3YP72EsfVgEZLQHG-93" vertex="1">
          <mxGeometry x="220" y="1100" width="50" height="50" as="geometry" />
        </mxCell>
        <mxCell id="aFMg3YP72EsfVgEZLQHG-65" value="FE" style="endArrow=openThin;html=1;rounded=0;edgeStyle=elbowEdgeStyle;elbow=vertical;strokeColor=#CCFFCC;startArrow=openThin;startFill=0;endFill=0;fillColor=#d5e8d4;exitX=0.5;exitY=1;exitDx=0;exitDy=0;" edge="1" parent="aFMg3YP72EsfVgEZLQHG-93" source="Skk9IjnTPZE2Z5z-faYJ-34" target="aFMg3YP72EsfVgEZLQHG-61">
          <mxGeometry x="0.0163" relative="1" as="geometry">
            <mxPoint x="690" y="717" as="sourcePoint" />
            <mxPoint x="670" y="430" as="targetPoint" />
            <mxPoint as="offset" />
          </mxGeometry>
        </mxCell>
        <mxCell id="aFMg3YP72EsfVgEZLQHG-40" value="iDrac" style="endArrow=openThin;html=1;rounded=0;strokeColor=#000000;startArrow=openThin;startFill=0;endFill=0;fillColor=#f8cecc;exitX=0.5;exitY=0;exitDx=0;exitDy=0;edgeStyle=orthogonalEdgeStyle;" edge="1" parent="aFMg3YP72EsfVgEZLQHG-93" source="aFMg3YP72EsfVgEZLQHG-17" target="aFMg3YP72EsfVgEZLQHG-37">
          <mxGeometry relative="1" as="geometry">
            <mxPoint x="590" y="270" as="sourcePoint" />
            <mxPoint x="-375" y="214" as="targetPoint" />
          </mxGeometry>
        </mxCell>
        <mxCell id="Skk9IjnTPZE2Z5z-faYJ-58" value="" style="endArrow=openThin;html=1;rounded=0;edgeStyle=elbowEdgeStyle;elbow=vertical;strokeColor=default;startArrow=openThin;startFill=0;endFill=0;" parent="aFMg3YP72EsfVgEZLQHG-93" source="Skk9IjnTPZE2Z5z-faYJ-55" target="Skk9IjnTPZE2Z5z-faYJ-51" edge="1">
          <mxGeometry relative="1" as="geometry">
            <mxPoint x="338" y="674.5" as="sourcePoint" />
            <mxPoint x="160" y="669.5" as="targetPoint" />
          </mxGeometry>
        </mxCell>
        <mxCell id="Skk9IjnTPZE2Z5z-faYJ-53" value="" style="endArrow=openThin;html=1;rounded=0;edgeStyle=elbowEdgeStyle;elbow=vertical;strokeColor=default;startArrow=openThin;startFill=0;endFill=0;" parent="aFMg3YP72EsfVgEZLQHG-93" source="Skk9IjnTPZE2Z5z-faYJ-52" target="Skk9IjnTPZE2Z5z-faYJ-46" edge="1">
          <mxGeometry relative="1" as="geometry">
            <mxPoint x="391" y="616.5" as="sourcePoint" />
            <mxPoint x="501" y="471.5" as="targetPoint" />
          </mxGeometry>
        </mxCell>
        <mxCell id="aFMg3YP72EsfVgEZLQHG-120" value="" style="endArrow=openThin;html=1;rounded=0;elbow=vertical;strokeColor=#82b366;startArrow=openThin;startFill=0;endFill=0;fillColor=#d5e8d4;exitX=0.5;exitY=0;exitDx=0;exitDy=0;entryX=0.25;entryY=0;entryDx=0;entryDy=0;edgeStyle=orthogonalEdgeStyle;" edge="1" parent="aFMg3YP72EsfVgEZLQHG-93" source="Skk9IjnTPZE2Z5z-faYJ-20" target="aFMg3YP72EsfVgEZLQHG-66">
          <mxGeometry relative="1" as="geometry">
            <mxPoint x="-116" y="560" as="sourcePoint" />
            <mxPoint x="-320" y="340" as="targetPoint" />
          </mxGeometry>
        </mxCell>
        <mxCell id="aFMg3YP72EsfVgEZLQHG-136" value="Wifi" style="whiteSpace=wrap;html=1;aspect=fixed;fillColor=#66FFFF;strokeColor=#b85450;" vertex="1" parent="aFMg3YP72EsfVgEZLQHG-93">
          <mxGeometry x="1055" y="76" width="28" height="28" as="geometry" />
        </mxCell>
        <mxCell id="Skk9IjnTPZE2Z5z-faYJ-27" value="" style="endArrow=openThin;html=1;rounded=0;edgeStyle=orthogonalEdgeStyle;elbow=vertical;strokeColor=#82b366;startArrow=openThin;startFill=0;endFill=0;fillColor=#d5e8d4;entryX=0.5;entryY=0;entryDx=0;entryDy=0;" parent="aFMg3YP72EsfVgEZLQHG-93" source="Skk9IjnTPZE2Z5z-faYJ-38" target="Skk9IjnTPZE2Z5z-faYJ-18" edge="1">
          <mxGeometry relative="1" as="geometry">
            <mxPoint x="500" y="570" as="sourcePoint" />
            <mxPoint x="600" y="570" as="targetPoint" />
          </mxGeometry>
        </mxCell>
        <mxCell id="aFMg3YP72EsfVgEZLQHG-157" value="??" style="edgeStyle=orthogonalEdgeStyle;rounded=0;orthogonalLoop=1;jettySize=auto;html=1;fillColor=#f8cecc;strokeColor=#b85450;" edge="1" parent="aFMg3YP72EsfVgEZLQHG-93" source="aFMg3YP72EsfVgEZLQHG-77" target="aFMg3YP72EsfVgEZLQHG-30">
          <mxGeometry relative="1" as="geometry">
            <mxPoint x="-470" y="510" as="sourcePoint" />
            <mxPoint x="-790" y="720.5" as="targetPoint" />
          </mxGeometry>
        </mxCell>
        <mxCell id="aFMg3YP72EsfVgEZLQHG-158" value="??" style="edgeStyle=orthogonalEdgeStyle;rounded=0;orthogonalLoop=1;jettySize=auto;html=1;fillColor=#f8cecc;strokeColor=#b85450;" edge="1" parent="aFMg3YP72EsfVgEZLQHG-93" source="aFMg3YP72EsfVgEZLQHG-101" target="aFMg3YP72EsfVgEZLQHG-29">
          <mxGeometry relative="1" as="geometry">
            <mxPoint x="-460" y="520" as="sourcePoint" />
            <mxPoint x="-630" y="710" as="targetPoint" />
            <Array as="points">
              <mxPoint x="-175" y="400" />
              <mxPoint x="-288" y="400" />
            </Array>
          </mxGeometry>
        </mxCell>
      </root>
    </mxGraphModel>
  </diagram>
</mxfile>
